<svg xmlns="http://www.w3.org/2000/svg" xml:space="preserve" width="900.07715" height="900" viewBox="0 0 900.07715 899.99998"><path d="M106.574 1352.267c-186.314 0-337.529-151.2-337.529-337.5 0-186.299 151.215-337.5 337.53-337.5 186.313 0 337.528 151.201 337.528 337.5 0 186.3-151.215 337.5-337.529 337.5z" style="color:#000;font-style:normal;font-variant:normal;font-weight:400;font-stretch:normal;font-size:medium;font-family:sans-serif;font-variant-ligatures:normal;font-variant-position:normal;font-variant-caps:normal;font-variant-numeric:normal;font-variant-alternates:normal;font-variant-east-asian:normal;font-feature-settings:normal;text-indent:0;text-decoration:none;text-decoration-line:none;text-decoration-style:solid;text-decoration-color:#000;letter-spacing:normal;word-spacing:normal;text-transform:none;writing-mode:lr-tb;direction:ltr;text-orientation:mixed;dominant-baseline:auto;baseline-shift:baseline;text-anchor:start;clip-rule:nonzero;display:inline;overflow:visible;visibility:visible;color-interpolation:sRGB;vector-effect:none;fill:#fff;fill-opacity:1;fill-rule:evenodd;stroke:none;stroke-width:16.4634;stroke-linecap:butt;stroke-linejoin:round;stroke-miterlimit:4;stroke-dasharray:none;stroke-dashoffset:0;stroke-opacity:1;color-rendering:auto;image-rendering:auto;shape-rendering:auto;text-rendering:auto;enable-background:accumulate;stop-color:#000" transform="matrix(1.33333 0 0 -1.33333 307.94 1803.023)"/><path d="M-222.626 1022.469c-.059-2.57-.097-5.145-.097-7.73 0-92.023 37.763-175.215 98.617-234.967l196.669 242.697h-295.189ZM-98.946 757.46c55.21-44.16 124.936-70.912 200.883-71.961v307.595l32.465 41.603v21.783z" style="fill:#7d5095;fill-opacity:1;fill-rule:nonzero;stroke:none;stroke-width:2.31899" transform="matrix(1.33333 0 0 -1.33333 307.94 1803.023)"/><path d="M106.574 1344.036c-167.727 0-306.162-125.398-326.675-287.556h354.503V686.622c168.838 14.132 301.47 155.627 301.47 328.118 0 181.865-147.433 329.296-329.298 329.296z" style="fill:#3498d4;fill-opacity:1;fill-rule:nonzero;stroke:none;stroke-width:2.31899" transform="matrix(1.33333 0 0 -1.33333 307.94 1803.023)"/></svg>