<svg width="28" height="28" viewBox="0 0 28 28" fill="none" xmlns="http://www.w3.org/2000/svg">
  <circle cx="14" cy="14" r="14" fill="#4CAF50"/>
  <path d="M14 7C10.13 7 7 10.13 7 14C7 17.87 10.13 21 14 21C17.87 21 21 17.87 21 14C21 10.13 17.87 7 14 7ZM14 19C11.24 19 9 16.76 9 14C9 11.24 11.24 9 14 9C16.76 9 19 11.24 19 14C19 16.76 16.76 19 14 19Z" fill="white"/>
  <path d="M14 11C12.34 11 11 12.34 11 14C11 15.66 12.34 17 14 17C15.66 17 17 15.66 17 14C17 12.34 15.66 11 14 11ZM14 15C13.45 15 13 14.55 13 14C13 13.45 13.45 13 14 13C14.55 13 15 13.45 15 14C15 14.55 14.55 15 14 15Z" fill="white"/>
  <path d="M14 4C13.45 4 13 3.55 13 3C13 2.45 13.45 2 14 2C14.55 2 15 2.45 15 3C15 3.55 14.55 4 14 4Z" fill="white"/>
  <path d="M14 26C13.45 26 13 25.55 13 25C13 24.45 13.45 24 14 24C14.55 24 15 24.45 15 25C15 25.55 14.55 26 14 26Z" fill="white"/>
  <path d="M25 14C24.45 14 24 13.55 24 13C24 12.45 24.45 12 25 12C25.55 12 26 12.45 26 13C26 13.55 25.55 14 25 14Z" fill="white"/>
  <path d="M3 14C2.45 14 2 13.55 2 13C2 12.45 2.45 12 3 12C3.55 12 4 12.45 4 13C4 13.55 3.55 14 3 14Z" fill="white"/>
</svg> 